<?xml version="1.0" encoding="UTF-8"?>
<svg version="1.1" xmlns="http://www.w3.org/2000/svg" width="1024" height="1024">
<path d="M0 0 C1.29113205 -0.00701431 2.5822641 -0.01402863 3.91252136 -0.02125549 C8.06147754 -0.04067324 12.21037797 -0.04568997 16.359375 -0.046875 C17.06603931 -0.04731686 17.77270363 -0.04775871 18.50078201 -0.04821396 C39.84664366 -0.05521616 60.9257054 0.24912441 82.109375 3.203125 C83.43989785 3.3821599 84.7704657 3.5608607 86.10107422 3.73925781 C104.6391509 6.25702583 122.93864425 9.7310895 141.109375 14.203125 C142.16753418 14.46319336 143.22569336 14.72326172 144.31591797 14.99121094 C206.57539978 30.53467821 266.3639466 58.18867023 318.109375 96.203125 C319.17027344 96.98042969 320.23117187 97.75773437 321.32421875 98.55859375 C324.27308078 100.74795912 327.19641124 102.966247 330.109375 105.203125 C330.64594727 105.61353027 331.18251953 106.02393555 331.73535156 106.44677734 C341.17126112 113.68278753 350.22140581 121.30573471 359.109375 129.203125 C360.08519531 130.06550781 361.06101562 130.92789063 362.06640625 131.81640625 C369.95207879 138.94201397 377.46045327 146.45009778 384.984375 153.953125 C385.53075623 154.49682739 386.07713745 155.04052979 386.64007568 155.60070801 C392.68251618 161.62068084 398.59320364 167.69029624 404.109375 174.203125 C405.05825378 175.28659652 406.00872421 176.36867661 406.9609375 177.44921875 C414.76144926 186.39191353 422.03348377 195.67925601 429.109375 205.203125 C429.65770996 205.94111328 430.20604492 206.67910156 430.77099609 207.43945312 C449.82449174 233.20224137 465.73907905 260.58080714 480.109375 289.203125 C480.7588208 290.48799805 480.7588208 290.48799805 481.42138672 291.79882812 C508.64685607 346.00277288 523.69760953 406.93903409 529.109375 467.203125 C529.19525879 468.1497702 529.28114258 469.09641541 529.36962891 470.07174683 C530.04621787 478.08843185 530.28318873 486.05061093 530.3125 494.09375 C530.32302147 496.03044807 530.32302147 496.03044807 530.33375549 498.00627136 C530.35317324 502.15522754 530.35818997 506.30412797 530.359375 510.453125 C530.35981686 511.15978931 530.36025871 511.86645363 530.36071396 512.59453201 C530.36771616 533.94039366 530.06337559 555.0194554 527.109375 576.203125 C526.9303401 577.53364785 526.7516393 578.8642157 526.57324219 580.19482422 C524.05547417 598.7329009 520.5814105 617.03239425 516.109375 635.203125 C515.84930664 636.26128418 515.58923828 637.31944336 515.32128906 638.40966797 C499.77782179 700.66914978 472.12382977 760.4576966 434.109375 812.203125 C433.33207031 813.26402344 432.55476562 814.32492187 431.75390625 815.41796875 C429.56454088 818.36683078 427.346253 821.29016124 425.109375 824.203125 C424.69896973 824.73969727 424.28856445 825.27626953 423.86572266 825.82910156 C416.62971247 835.26501112 409.00676529 844.31515581 401.109375 853.203125 C400.24699219 854.17894531 399.38460937 855.15476562 398.49609375 856.16015625 C391.37048603 864.04582879 383.86240222 871.55420327 376.359375 879.078125 C375.81567261 879.62450623 375.27197021 880.17088745 374.71179199 880.73382568 C368.69181916 886.77626618 362.62220376 892.68695364 356.109375 898.203125 C355.02590348 899.15200378 353.94382339 900.10247421 352.86328125 901.0546875 C343.92058647 908.85519926 334.63324399 916.12723377 325.109375 923.203125 C324.37138672 923.75145996 323.63339844 924.29979492 322.87304688 924.86474609 C297.11025863 943.91824174 269.73169286 959.83282905 241.109375 974.203125 C239.82450195 974.8525708 239.82450195 974.8525708 238.51367188 975.51513672 C184.30972712 1002.74060607 123.37346591 1017.79135953 63.109375 1023.203125 C62.1627298 1023.28900879 61.21608459 1023.37489258 60.24075317 1023.46337891 C52.22406815 1024.13996787 44.26188907 1024.37693873 36.21875 1024.40625 C34.92761795 1024.41326431 33.6364859 1024.42027863 32.30622864 1024.42750549 C28.15727246 1024.44692324 24.00837203 1024.45193997 19.859375 1024.453125 C18.79937853 1024.45378778 18.79937853 1024.45378778 17.71796799 1024.45446396 C-3.62789366 1024.46146616 -24.7069554 1024.15712559 -45.890625 1021.203125 C-47.22114785 1021.0240901 -48.5517157 1020.8453893 -49.88232422 1020.66699219 C-68.4204009 1018.14922417 -86.71989425 1014.6751605 -104.890625 1010.203125 C-105.94878418 1009.94305664 -107.00694336 1009.68298828 -108.09716797 1009.41503906 C-170.35664978 993.87157179 -230.1451966 966.21757977 -281.890625 928.203125 C-282.95152344 927.42582031 -284.01242187 926.64851562 -285.10546875 925.84765625 C-288.05433078 923.65829088 -290.97766124 921.440003 -293.890625 919.203125 C-294.42719727 918.79271973 -294.96376953 918.38231445 -295.51660156 917.95947266 C-304.95251112 910.72346247 -314.00265581 903.10051529 -322.890625 895.203125 C-323.86644531 894.34074219 -324.84226562 893.47835937 -325.84765625 892.58984375 C-333.73332879 885.46423603 -341.24170327 877.95615222 -348.765625 870.453125 C-349.31200623 869.90942261 -349.85838745 869.36572021 -350.42132568 868.80554199 C-356.46376618 862.78556916 -362.37445364 856.71595376 -367.890625 850.203125 C-368.83950378 849.11965348 -369.78997421 848.03757339 -370.7421875 846.95703125 C-378.54269926 838.01433647 -385.81473377 828.72699399 -392.890625 819.203125 C-393.43895996 818.46513672 -393.98729492 817.72714844 -394.55224609 816.96679688 C-413.60574174 791.20400863 -429.52032905 763.82544286 -443.890625 735.203125 C-444.5400708 733.91825195 -444.5400708 733.91825195 -445.20263672 732.60742188 C-472.42810607 678.40347712 -487.47885953 617.46721591 -492.890625 557.203125 C-492.97650879 556.2564798 -493.06239258 555.30983459 -493.15087891 554.33450317 C-493.82746787 546.31781815 -494.06443873 538.35563907 -494.09375 530.3125 C-494.10427147 528.37580193 -494.10427147 528.37580193 -494.11500549 526.39997864 C-494.13442324 522.25102246 -494.13943997 518.10212203 -494.140625 513.953125 C-494.14106686 513.24646069 -494.14150871 512.53979637 -494.14196396 511.81171799 C-494.14896616 490.46585634 -493.84462559 469.3867946 -490.890625 448.203125 C-490.7115901 446.87260215 -490.5328893 445.5420343 -490.35449219 444.21142578 C-487.83672417 425.6733491 -484.3626605 407.37385575 -479.890625 389.203125 C-479.50052246 387.61588623 -479.50052246 387.61588623 -479.10253906 385.99658203 C-463.55907179 323.73710022 -435.90507977 263.9485534 -397.890625 212.203125 C-397.11332031 211.14222656 -396.33601563 210.08132812 -395.53515625 208.98828125 C-393.34579088 206.03941922 -391.127503 203.11608876 -388.890625 200.203125 C-388.48021973 199.66655273 -388.06981445 199.12998047 -387.64697266 198.57714844 C-380.41096247 189.14123888 -372.78801529 180.09109419 -364.890625 171.203125 C-364.02824219 170.22730469 -363.16585937 169.25148437 -362.27734375 168.24609375 C-355.15173603 160.36042121 -347.64365222 152.85204673 -340.140625 145.328125 C-339.59692261 144.78174377 -339.05322021 144.23536255 -338.49304199 143.67242432 C-332.47306916 137.62998382 -326.40345376 131.71929636 -319.890625 126.203125 C-318.80715348 125.25424622 -317.72507339 124.30377579 -316.64453125 123.3515625 C-307.70183647 115.55105074 -298.41449399 108.27901623 -288.890625 101.203125 C-288.15263672 100.65479004 -287.41464844 100.10645508 -286.65429688 99.54150391 C-260.89150863 80.48800826 -233.51294286 64.57342095 -204.890625 50.203125 C-203.60575195 49.5536792 -203.60575195 49.5536792 -202.29492188 48.89111328 C-148.09097712 21.66564393 -87.15471591 6.61489047 -26.890625 1.203125 C-25.9439798 1.11724121 -24.99733459 1.03135742 -24.02200317 0.94287109 C-16.00531815 0.26628213 -8.04313907 0.02931127 0 0 Z " fill="#E7F3FF" transform="translate(493.890625,-0.203125)"/>
<path d="M0 0 C0.74169434 0.27005859 1.48338867 0.54011719 2.24755859 0.81835938 C28.20594613 10.43139805 52.51856737 23.48522983 74 41 C74.96035156 41.75667969 75.92070313 42.51335937 76.91015625 43.29296875 C92.85002746 56.2299739 108.02040701 71.31413833 120 88 C120.82621128 89.09909744 121.6543718 90.19673203 122.484375 91.29296875 C160.87376233 142.63030003 178.21323446 210.15247421 169.75 273.6875 C169.23564894 277.13953927 168.64258711 280.56969883 168 284 C167.77521973 285.2360498 167.77521973 285.2360498 167.54589844 286.49707031 C159.79183476 328.29657705 142.96475341 367.92839654 116 401 C115.24332031 401.96035156 114.48664063 402.92070313 113.70703125 403.91015625 C100.7700261 419.85002746 85.68586167 435.02040701 69 447 C67.90090256 447.82621128 66.80326797 448.6543718 65.70703125 449.484375 C30.0415208 476.14945207 -12.29415414 490.87927358 -56.09179688 496.61450195 C-58.17742415 496.89096312 -60.25860311 497.20181495 -62.3359375 497.53491211 C-66.38757953 498.04919636 -70.32773872 498.17899735 -74.40625 498.203125 C-75.19964783 498.21018463 -75.99304565 498.21724426 -76.81048584 498.22451782 C-94.06418554 498.3429532 -111.00066937 498.30788223 -128 495 C-129.59859863 494.69400879 -129.59859863 494.69400879 -131.22949219 494.38183594 C-172.89120523 486.20657262 -210.62455427 469.23631295 -244 443 C-244.94359375 442.26265625 -245.8871875 441.5253125 -246.859375 440.765625 C-262.80682035 427.79283267 -278.00290219 412.71024338 -290 396 C-290.82621128 394.90090256 -291.6543718 393.80326797 -292.484375 392.70703125 C-330.91578782 341.30361876 -348.03087705 273.29050327 -339.875 209.75 C-339.34028573 206.14689435 -338.69570798 202.57526937 -338 199 C-337.79600586 197.93426758 -337.59201172 196.86853516 -337.38183594 195.77050781 C-329.20657262 154.10879477 -312.23631295 116.37544573 -286 83 C-285.26265625 82.05640625 -284.5253125 81.1128125 -283.765625 80.140625 C-270.79283267 64.19317965 -255.71024338 48.99709781 -239 37 C-237.90090256 36.17378872 -236.80326797 35.3456282 -235.70703125 34.515625 C-169.44375713 -15.03518787 -77.72675625 -28.36157027 0 0 Z " fill="#A8D8FE" transform="translate(597,270)"/>
<path d="M0 0 C21.02026654 18.1655566 36.78789815 45.32431959 39 73.375 C40.5694108 105.32643195 33.59394471 134.36560315 13 159.375 C12.24074219 160.29925781 11.48148438 161.22351563 10.69921875 162.17578125 C-7.15622531 182.83666333 -34.57792762 198.09256404 -62 200.375 C-96.18321014 202.58381315 -126.04276117 193.61417557 -151.95092773 171.09204102 C-169.99002004 154.84641304 -182.20142774 133.18211012 -187 109.375 C-187.24834595 108.3243335 -187.24834595 108.3243335 -187.50170898 107.25244141 C-193.69979058 79.6455809 -187.23039481 50.56843804 -172.68725586 26.70825195 C-154.72217622 -1.57495244 -129.07493405 -18.01956766 -97.1328125 -26.375 C-62.66839548 -33.56757399 -26.52029358 -22.23487148 0 0 Z " fill="#3B83DC" transform="translate(587,425.625)"/>
<path d="M0 0 C2.52401485 2.23611941 4.98806255 4.52238867 7.4375 6.83984375 C8.26121094 7.59910156 9.08492187 8.35835938 9.93359375 9.140625 C32.60656043 30.7524544 45.74005566 62.1108695 46.640625 93.25 C47.13513873 129.15421683 35.32929242 161.53042831 10.4375 187.83984375 C9.67824219 188.66355469 8.91898438 189.48726562 8.13671875 190.3359375 C-7.22814845 206.45521716 -27.18007501 217.13786375 -48.5625 222.83984375 C-49.74585938 223.18789063 -50.92921875 223.5359375 -52.1484375 223.89453125 C-84.19355025 232.76743432 -118.63054328 225.27855907 -147.109375 209.48046875 C-153.42722564 205.82955762 -159.0106328 201.57307102 -164.5625 196.83984375 C-165.50351562 196.06125 -166.44453125 195.28265625 -167.4140625 194.48046875 C-190.166043 174.86890246 -205.85881172 144.57317637 -209.3203125 114.7265625 C-210.17169565 101.06323618 -210.33281868 87.29340287 -207.5625 73.83984375 C-207.31757813 72.59589844 -207.07265625 71.35195313 -206.8203125 70.0703125 C-202.39557057 49.37971765 -191.82280676 31.09706195 -178.5625 14.83984375 C-177.49902344 13.525 -177.49902344 13.525 -176.4140625 12.18359375 C-158.71016305 -8.61355207 -132.86904893 -21.44399932 -106.5625 -27.16015625 C-105.49128906 -27.40636719 -104.42007813 -27.65257812 -103.31640625 -27.90625 C-67.45117085 -34.81257023 -27.67216132 -23.32729453 0 0 Z M-154.5625 10.83984375 C-155.09085449 11.27780273 -155.61920898 11.71576172 -156.16357422 12.16699219 C-173.27242329 26.5589418 -185.17822752 45.43776304 -191.5625 66.83984375 C-191.75859863 67.47631836 -191.95469727 68.11279297 -192.15673828 68.76855469 C-200.74955209 97.56115565 -195.60079616 128.64498927 -181.55151367 154.78198242 C-177.84380029 161.32516755 -173.47496839 167.16492939 -168.5625 172.83984375 C-167.62470703 173.97679687 -167.62470703 173.97679687 -166.66796875 175.13671875 C-149.1528141 195.82671813 -122.36378082 209.57419506 -95.5625 212.83984375 C-64.56888722 215.14936634 -34.04783008 208.18278899 -9.859375 187.828125 C-9.10140625 187.17199219 -8.3434375 186.51585937 -7.5625 185.83984375 C-6.80453125 185.21464844 -6.0465625 184.58945312 -5.265625 183.9453125 C15.70069345 166.19623947 29.85529609 138.34406185 32.29248047 111.00732422 C34.62634225 76.12512742 24.83733564 47.04029948 2.0625 20.65234375 C-17.50238655 -0.50071148 -45.27560694 -13.8618185 -74.08837891 -15.28491211 C-104.21587291 -16.15163783 -131.16654898 -8.57972034 -154.5625 10.83984375 Z " fill="#E9F2FA" transform="translate(593.5625,413.16015625)"/>
<path d="M0 0 C3.96 0 7.92 0 12 0 C14.85709647 3.19902746 16.2377472 5.25005061 18 9 C18.47228027 9.89380371 18.94456055 10.78760742 19.43115234 11.70849609 C20.90292619 14.51133411 22.30208181 17.34109535 23.6875 20.1875 C24.39616211 21.62512695 24.39616211 21.62512695 25.11914062 23.09179688 C26.02118421 24.92245195 26.92091121 26.75425107 27.81787109 28.58740234 C29.19590629 31.39982362 30.59374788 34.20160531 32 37 C32.38369751 36.27018921 32.38369751 36.27018921 32.77514648 35.52563477 C35.38032472 30.57121137 37.98783339 25.61802019 40.59667969 20.66552734 C41.94354858 18.10722626 43.28826367 15.5478022 44.6328125 12.98828125 C45.44260089 11.45046425 46.25249206 9.91270137 47.0625 8.375 C47.44398193 7.64740479 47.82546387 6.91980957 48.21850586 6.17016602 C50.88622248 1.11377752 50.88622248 1.11377752 52 0 C55.96 0 59.92 0 64 0 C64 19.14 64 38.28 64 58 C60.37 58 56.74 58 53 58 C52.67 46.12 52.34 34.24 52 22 C48.23015557 28.92449064 48.23015557 28.92449064 44.46191406 35.84985352 C41.6929673 40.93108583 38.89522033 45.9895823 36 51 C33.36 51 30.72 51 28 51 C27.58637207 50.19780029 27.17274414 49.39560059 26.74658203 48.5690918 C25.20860828 45.58837686 23.66905119 42.60849102 22.12841797 39.62915039 C21.46241796 38.34041607 20.79704757 37.05135617 20.13232422 35.76196289 C19.17581559 33.90685087 18.21703607 32.0529281 17.2578125 30.19921875 C16.39373779 28.52605591 16.39373779 28.52605591 15.51220703 26.8190918 C14.01169552 23.91408249 14.01169552 23.91408249 12 21 C11.67 33.21 11.34 45.42 11 58 C7.37 58 3.74 58 0 58 C0 38.86 0 19.72 0 0 Z " fill="#F9FBFD" transform="translate(507,483)"/>
<path d="M0 0 C15.18 0 30.36 0 46 0 C46 3.3 46 6.6 46 10 C40.39 10 34.78 10 29 10 C29 25.84 29 41.68 29 58 C25.04 58 21.08 58 17 58 C17 42.16 17 26.32 17 10 C11.39 10 5.78 10 0 10 C0 6.7 0 3.4 0 0 Z " fill="#FAFCFE" transform="translate(453,483)"/>
</svg>

